<svg width="118" height="24" viewBox="0 0 118 24" fill="none" xmlns="http://www.w3.org/2000/svg">
<path d="M13.3603 0.616699H17.33L14.2794 18.1016H10.3097L11.5244 11.1574H6.06523L4.85054 18.1016H0.880859L3.93144 0.616699H7.90112L6.73492 7.30984H12.1941L13.3603 0.616699Z" fill="#FCDC55"/>
<path d="M26.9827 5.61255H31.1001L24.7496 17.7272C23.6573 19.8009 22.468 21.2493 21.1771 22.049C19.9116 22.8487 18.4221 23.1975 16.7363 23.0975L17.3321 19.601C18.2258 19.601 18.8955 19.4522 19.3666 19.1755C19.8377 18.9012 20.2857 18.3502 20.706 17.5528L17.951 5.61255H21.7729L23.3109 13.2565L26.9827 5.61255Z" fill="#FCDC55"/>
<path d="M43.7304 7.33754C44.6495 8.71151 44.945 10.2854 44.6725 12.1081C44.4255 13.8075 43.6795 15.2791 42.4649 16.5531C41.2502 17.8271 39.7353 18.4525 37.8994 18.4525C36.2367 18.4525 35.022 17.8527 34.253 16.6787L33.1376 23.0975H29.415L32.4656 5.61252H36.1882L36.015 6.66102C37.0311 5.73807 38.2481 5.26147 39.7122 5.26147C41.4719 5.2638 42.8113 5.96357 43.7304 7.33754ZM35.1213 11.7314L35.0728 11.957C34.9481 12.8567 35.1213 13.5797 35.5693 14.1051C36.015 14.6305 36.6616 14.9048 37.5299 14.9048C38.3982 14.9048 39.1418 14.6305 39.763 14.0795C40.3842 13.5309 40.7814 12.7799 40.9546 11.857C41.2779 9.98318 40.3103 8.80915 38.5968 8.80915C36.9064 8.80915 35.4931 9.95993 35.1213 11.7314Z" fill="#FCDC55"/>
<path d="M58.0454 7.16097C59.1377 8.43497 59.5095 9.9833 59.1608 11.8571C59.0869 12.3825 58.9368 12.8823 58.7636 13.3566H49.8821C50.0553 14.5306 50.9236 15.1049 52.4385 15.1049C53.48 15.1049 54.3483 14.7794 55.0433 14.1308L57.6482 16.2789C56.2349 17.7273 54.3991 18.4526 52.1891 18.4526C50.0807 18.4526 48.4919 17.804 47.3996 16.4788C46.3327 15.156 45.9355 13.531 46.2588 11.6083C46.5313 9.78569 47.3742 8.28618 48.7898 7.08657C50.2031 5.86372 51.8173 5.26392 53.6786 5.26392C55.5145 5.26392 56.9785 5.88697 58.0454 7.16097ZM55.6645 10.5087C55.5398 9.2347 54.7963 8.58608 53.4315 8.58608C52.0667 8.58608 51.0506 9.2347 50.404 10.5087H55.6645Z" fill="#FCDC55"/>
<path d="M65.5643 7.86063C66.2848 6.23791 67.8713 5.36377 69.7326 5.36377L69.0121 9.60889C68.4671 9.53449 67.9198 9.53449 67.3494 9.65771C66.2571 9.88321 65.0424 10.8573 64.7699 12.4545L64.7953 12.3057L63.7792 18.1014H60.0566L62.2412 5.61253H65.9638L65.5643 7.86063Z" fill="#FCDC55"/>
<path d="M88.7685 5.61252H92.4911L90.3065 18.1014H86.5839L86.7317 17.2529C85.7895 18.0526 84.5494 18.4525 83.0091 18.4525C81.0993 18.4525 79.7345 17.7527 78.8662 16.3788C77.9979 14.9792 77.7508 13.3821 78.0972 11.5571C78.4205 9.83439 79.1895 8.36046 80.4296 7.13528C81.6951 5.88685 83.2331 5.26147 85.069 5.26147C86.6324 5.26147 87.7732 5.81013 88.5422 6.93535L88.7685 5.61252ZM87.6762 11.857C87.9995 9.98318 86.9811 8.80915 85.2699 8.80915C83.5587 8.80915 82.1431 9.98318 81.8221 11.857C81.5011 13.7308 82.4918 14.9048 84.203 14.9048C85.9142 14.9048 87.3529 13.7052 87.6762 11.8826V11.857Z" fill="#FFFFFB"/>
<path d="M92.5156 15.3791L95.8641 13.6796C96.2359 14.6282 96.9564 15.1024 98.0718 15.1024C98.9147 15.1024 99.3627 14.8769 99.4366 14.4538C99.5359 13.9284 98.5683 13.5797 97.3767 13.2542C95.6655 12.8288 93.4809 11.8547 94.0282 9.03233C94.4993 6.38436 97.0303 5.26147 99.238 5.26147C101.423 5.26147 103.182 6.26115 103.977 7.93501L100.628 9.60888C100.33 8.88354 99.7853 8.50924 99.0163 8.50924C98.2727 8.50924 97.8501 8.758 97.7508 9.28341C97.6261 9.95761 98.5706 10.2575 99.7599 10.5574C101.471 10.8829 103.681 11.757 103.134 14.7281C102.663 17.2506 100.554 18.4502 97.7508 18.4502C95.1944 18.4502 93.4324 17.4272 92.5156 15.3791Z" fill="#FFFFFB"/>
<path d="M117.029 6.66111C117.798 7.58639 118.047 8.83481 117.773 10.432L116.433 18.0992H112.711L113.951 10.9806C114.223 9.45786 113.454 8.70694 112.163 8.70694C110.799 8.70694 109.732 9.5555 109.434 11.2805L108.242 18.0992H104.52L107.57 0.614258H111.293L110.226 6.78432C111.143 5.7614 112.36 5.26156 113.872 5.26156C115.216 5.26389 116.26 5.73816 117.029 6.66111Z" fill="#FFFFFB"/>
<path d="M75.4036 3.26222C74.0388 1.48839 72.2029 0.614258 69.9214 0.614258H62.975L62.3076 4.43626L66.275 4.46183H69.2517C72.0297 4.46183 73.5446 6.26124 73.0227 9.23235C72.7502 10.7551 72.1036 11.9547 71.0622 12.88C70.0207 13.8029 68.7552 14.254 67.2911 14.254H65.536L64.8409 18.0992H66.8708C69.3764 18.0992 71.561 17.2995 73.4199 15.7256C75.2812 14.1261 76.422 12.0779 76.8446 9.60665C77.2626 7.13537 76.7915 5.03606 75.4036 3.26222Z" fill="#FFFFFB"/>
<path d="M57.7085 0.616455H56.9279H56.7801L56.1289 4.4617H56.279H57.0365H57.1866L57.8563 0.616455H57.7085Z" fill="#FFFFFB"/>
<path d="M59.6178 0.616455H58.5717H58.3777L57.708 4.4617H57.8997H58.9689H59.1606L59.8118 0.616455H59.6178Z" fill="#FFFFFB"/>
<path d="M61.8118 0.616455H61.6178H60.7934H60.5717H60.3777L59.708 4.4617H59.8997H60.1214H60.9689H61.1629H61.7956L62.4468 0.616455H61.8118Z" fill="#FFFFFB"/>
</svg>
